<svg width="18" height="10" viewBox="0 0 18 10" fill="none" xmlns="http://www.w3.org/2000/svg">
<path d="M5.1064 9.00024L5.24656 8.86427L1.37938 5.11276L16.9999 5.11276V4.92044L1.37978 4.92044L5.24656 1.16893L5.1064 1.03296L0.999939 5.01679L5.1064 9.00024Z" fill="black"/>
<path fill-rule="evenodd" clip-rule="evenodd" d="M5.10639 9.41821L0.778997 5.22044H0.639713L0.709351 5.15288L0.569075 5.0168L0.70933 4.88074L0.639263 4.81277H0.779394L5.10638 0.614983L5.67738 1.16893L2.11981 4.62044L17.2999 4.62044V5.41277L2.11947 5.41277L5.67739 8.86427L5.10639 9.41821ZM16.9999 5.11277V4.92044L1.37976 4.92044L5.24654 1.16893L5.10638 1.03296L0.999941 5.01678L5.10638 9.00025L5.24654 8.86428L1.37976 5.11315L16.9999 5.11277Z" fill="black"/>
</svg>
