<svg width="82" height="52" viewBox="0 0 82 52" fill="none" xmlns="http://www.w3.org/2000/svg">
<path fill-rule="evenodd" clip-rule="evenodd" d="M20.5 43.7C20.2 42.7 19.5 41.5 18.9 40.2C19.4 41.3 19.9 42.4 20.5 43.7ZM21.9 43.6C21.1 42.2 20.6 40.7 20.1 39.1C19.7 38.6 19.4 38.8 19 39C18.4 39.6 17.8 39.7 18.5 40.2C19.3 41.6 19.9 42.8 20.3 44.2C20.5 44.1 20.8 43.9 21 43.8C21.3 43.7 21.4 43.4 21.9 43.6V43.6ZM18.4 39C18.1 38 17.4 36.8 16.8 35.5C17.3 36.6 17.8 37.7 18.4 39ZM16.1 34.1C15.9 33.3 15.1 31.9 14.6 30.8C15.1 31.9 15.5 32.8 16.2 34.3L16.1 34.1V34.1ZM17.5 34C16.8 32.8 16.3 31.3 15.7 29.5C15.4 29.2 15 29.4 14.7 29.6C14.1 30.2 13.5 30.3 14.2 30.8C14.9 32 15.6 33.4 16 34.8C16.2 34.7 16.5 34.5 16.7 34.4C16.9 34.1 17.1 34 17.5 34ZM14 29.3C13.8 28.5 13 27.1 12.5 26C13 27.1 13.4 28 14.1 29.5L14 29.3ZM15.4 29.2C14.7 28 14.2 26.5 13.6 24.7C13.3 24.4 12.9 24.6 12.6 24.8C12 25.4 11.4 25.3 12.1 26C12.8 27.2 13.5 28.6 13.9 30C14.1 29.9 14.4 29.7 14.5 29.4C14.8 29.3 14.9 29.2 15.4 29.2ZM15 34.5C14.3 34.4 13.8 34.2 13.2 34.2C13.9 34.2 14.3 34.2 15 34.5C14 34.2 13.3 33.9 12.4 33.7C13.1 34 13.8 34 14.8 34.4C13.7 33.9 12.8 33.7 12 33.3C12.7 33.6 13.5 33.8 14.6 34.4C13.7 33.8 12.7 33.4 11.7 33.1C12.6 33.3 13.7 33.8 15 34.5C15.3 34.5 15.3 34.5 15 34.5V34.5ZM14.7 34.6C14.7 34.6 14.5 34.7 14.5 34.5C13.3 34.5 12.2 34.4 11.2 34.6C12.1 34.8 13.1 34.7 14.1 34.6C13.1 34.7 12.3 34.7 11.5 34.9C12.3 34.9 13.3 34.8 14.3 34.7C13.5 34.7 12.7 34.9 12 35.1C13 35 13.7 34.8 14.6 34.8C14 34.9 13.4 35 12.9 35.1C13.5 35 14.1 34.9 14.6 34.8L14.7 34.6V34.6ZM15.2 35.7C14.9 35.9 14.6 36.3 14.1 36.5C14.5 36.4 14.7 36 15.2 35.7C14.7 36 14.1 36.5 13.6 36.8C14.1 36.5 14.5 36.1 15 35.8C14.3 36.2 13.7 36.6 13.1 37.1C13.5 36.6 14.2 36.3 14.8 35.9C14.1 36.3 13.5 36.7 12.8 37C13.5 36.6 14.2 36 15 35.5C15.3 35.5 15.4 35.6 15.2 35.7ZM15.3 35.9L15.1 36C14.4 36.8 13.9 37.6 13.6 38.2C13.9 37.6 14.4 36.8 14.8 36.3C14.5 36.9 14.1 37.4 13.7 38.1C14 37.5 14.5 36.7 14.9 36.1C14.6 36.7 14.4 37.3 14.2 37.7C14.4 37.3 14.8 36.7 15.1 36C14.9 36.6 14.7 36.9 14.6 37.2C14.8 36.8 14.8 36.4 15.1 36L15.3 35.9ZM15.7 35.5C15.9 35.4 15.9 35.4 16 35.3C16.1 35.5 16.1 35.5 16.3 35.6C17.1 37 17.7 38.2 18.1 39.6C18.3 39.5 18.6 39.3 18.8 39.2C19 38.8 19.2 38.7 19.6 38.7C18.9 37.5 18.4 36 17.8 34.2C17.5 33.9 17.1 34.1 16.8 34.3C16.4 34.8 16 34.8 15.9 35C15.8 34.8 15.6 34.7 15.5 34.5C15.4 34.3 15.2 34.2 14.8 33.8C13.7 33.3 12 32.7 11.1 32.5C11.3 33 12.7 33.7 13.7 34.2C12.6 34.1 11.2 34.2 10.4 34.7C11.2 35.1 14.3 35 15.2 34.7C15.2 34.7 15.4 34.6 15.4 34.8C15.6 34.9 15.9 35 16 35.2C15.8 35.3 15.7 35.4 15.4 35.3C15.4 35.3 15.2 35.4 14.9 35.6C14 35.9 12.9 36.7 12.3 37.3C12.8 37.5 13.8 36.9 14.5 36.3C14 37 13.4 38.1 13.1 38.7C13.8 38.5 15.2 36.4 15.2 35.6C15.5 35.5 15.5 35.5 15.7 35.5V35.5Z" fill="white"/>
<path fill-rule="evenodd" clip-rule="evenodd" d="M2 1C1.47614 1 1 1.47614 1 2V50C1 50.5239 1.47614 51 2 51H80C80.5239 51 81 50.5239 81 50V2C81 1.47614 80.5239 1 80 1H2ZM0 2C0 0.923858 0.923858 0 2 0H80C81.0761 0 82 0.923858 82 2V50C82 51.0761 81.0761 52 80 52H2C0.923858 52 0 51.0761 0 50V2Z" fill="white"/>
<path d="M8.1 16.1V21.4H6.3V7.8H11.3C12.8 7.8 14 8.2 14.8 8.9C15.6 9.6 16.1 10.7 16.1 11.9C16.1 13.2 15.7 14.2 14.9 15C14.1 15.7 12.9 16.1 11.4 16.1H8.1ZM8.1 14.6H11.3C12.3 14.6 13 14.4 13.5 13.9C14 13.4 14.3 12.8 14.3 11.9C14.3 11.1 14 10.4 13.5 10C13 9.5 12.3 9.3 11.4 9.2H8.1V14.6ZM22.2 21.6C20.8 21.6 19.7 21.1 18.9 20.2C18.1 19.3 17.6 18.1 17.6 16.6V16.3C17.6 15.3 17.8 14.4 18.2 13.6C18.6 12.8 19.1 12.2 19.8 11.7C20.5 11.3 21.2 11 22 11C23.3 11 24.3 11.4 25.1 12.3C25.8 13.2 26.2 14.4 26.2 16V16.7H19.3C19.3 17.7 19.6 18.5 20.2 19.1C20.8 19.7 21.5 20 22.3 20C22.9 20 23.4 19.9 23.9 19.6C24.3 19.4 24.7 19 25 18.6L26.1 19.4C25.2 21 23.9 21.6 22.2 21.6V21.6ZM22 12.6C21.3 12.6 20.7 12.9 20.2 13.4C19.7 13.9 19.4 14.6 19.3 15.5H24.4V15.4C24.4 14.5 24.1 13.8 23.7 13.4C23.3 12.8 22.7 12.6 22 12.6ZM30.5 8.9V11.4H32.4V12.7H30.5V19C30.5 19.4 30.6 19.7 30.8 19.9C31 20.1 31.3 20.2 31.7 20.2C31.9 20.2 32.2 20.2 32.5 20.1V21.5C32 21.6 31.6 21.7 31.2 21.7C30.4 21.7 29.8 21.5 29.5 21C29.1 20.5 28.9 19.9 28.9 19V12.7H27.1V11.4H28.9V8.9H30.5ZM38.7 15.4C37.2 15 36 14.4 35.3 13.8C34.6 13.2 34.2 12.4 34.2 11.4C34.2 10.3 34.6 9.4 35.5 8.7C36.4 8 37.5 7.6 38.8 7.6C39.7 7.6 40.6 7.8 41.3 8.1C42 8.5 42.6 9 43 9.6C43.4 10.2 43.6 10.9 43.6 11.7H41.8C41.8 10.9 41.5 10.2 41 9.8C40.5 9.3 39.7 9.1 38.8 9.1C37.9 9.1 37.2 9.3 36.7 9.7C36.2 10.1 36 10.6 36 11.3C36 11.9 36.2 12.3 36.7 12.7C37.2 13.1 38 13.4 39.1 13.8C40.2 14.1 41.1 14.5 41.8 14.9C42.5 15.3 42.9 15.7 43.2 16.2C43.5 16.7 43.7 17.3 43.7 18C43.7 19.1 43.3 20 42.4 20.7C41.5 21.4 40.4 21.7 38.9 21.7C38 21.7 37.1 21.5 36.3 21.2C35.5 20.8 34.9 20.4 34.4 19.7C34 19.1 33.7 18.4 33.7 17.6H35.5C35.5 18.4 35.8 19.1 36.4 19.5C37 19.9 37.8 20.2 38.8 20.2C39.7 20.2 40.5 20 41 19.6C41.5 19.2 41.8 18.7 41.8 18C41.8 17.3 41.6 16.8 41.1 16.5C40.8 16.1 39.9 15.7 38.7 15.4V15.4ZM48.1 8.9V11.4H50V12.7H48.1V19C48.1 19.4 48.2 19.7 48.4 19.9C48.6 20.1 48.9 20.2 49.3 20.2C49.5 20.2 49.8 20.2 50.1 20.1V21.5C49.6 21.6 49.2 21.7 48.8 21.7C48 21.7 47.4 21.5 47.1 21C46.7 20.5 46.5 19.9 46.5 19V12.7H44.7V11.4H46.5V8.9H48.1V8.9ZM51.3 16.3C51.3 15.3 51.5 14.4 51.9 13.6C52.3 12.8 52.8 12.2 53.5 11.8C54.2 11.4 55 11.2 55.9 11.2C57.3 11.2 58.4 11.7 59.2 12.6C60.1 13.6 60.5 14.8 60.5 16.4V16.5C60.5 17.5 60.3 18.4 59.9 19.2C59.5 20 59 20.6 58.3 21C57.6 21.4 56.8 21.7 55.9 21.7C54.5 21.7 53.4 21.2 52.6 20.3C51.7 19.3 51.3 18.1 51.3 16.5V16.3V16.3ZM53.1 16.5C53.1 17.6 53.4 18.5 53.9 19.2C54.4 19.9 55.1 20.2 56 20.2C56.9 20.2 57.6 19.9 58.1 19.2C58.6 18.5 58.9 17.5 58.9 16.3C58.9 15.2 58.6 14.3 58.1 13.6C57.6 12.9 56.9 12.6 56 12.6C55.1 12.6 54.5 12.9 53.9 13.6C53.3 14.3 53.1 15.2 53.1 16.5ZM67.6 12.9C67.3 12.9 67.1 12.8 66.7 12.8C65.6 12.8 64.8 13.3 64.4 14.2V21.4H62.7V11.3H64.4V12.5C65 11.6 65.8 11.1 66.8 11.1C67.1 11.1 67.4 11.1 67.6 11.2V12.9V12.9ZM72.7 18.9L75.1 11.3H77L72.8 23C72.2 24.7 71.2 25.5 69.8 25.5H69.5L68.9 25.4V24H69.4C70 24 70.4 23.9 70.8 23.6C71.1 23.4 71.4 22.9 71.6 22.3L72 21.3L68.4 11.3H70.3L72.7 18.9V18.9ZM16 39.3C16 38.3 16.2 37.4 16.6 36.6C17 35.8 17.5 35.2 18.2 34.8C18.9 34.4 19.7 34.2 20.6 34.2C22 34.2 23.1 34.7 23.9 35.6C24.8 36.6 25.2 37.8 25.2 39.4V39.5C25.2 40.5 25 41.4 24.6 42.2C24.2 43 23.7 43.6 23 44C22.3 44.4 21.5 44.7 20.6 44.7C19.2 44.7 18.1 44.2 17.3 43.3C16.4 42.3 16 41.1 16 39.5V39.3ZM17.8 39.5C17.8 40.6 18.1 41.5 18.6 42.2C19.1 42.9 19.8 43.2 20.7 43.2C21.6 43.2 22.3 42.9 22.8 42.2C23.3 41.5 23.6 40.5 23.6 39.3C23.6 38.2 23.3 37.3 22.8 36.6C22.3 35.9 21.6 35.6 20.7 35.6C19.8 35.6 19.2 35.9 18.6 36.6C18 37.3 17.8 38.2 17.8 39.5ZM29 34.3L29.1 35.6C29.9 34.6 30.9 34.1 32.1 34.1C34.2 34.1 35.3 35.3 35.3 37.7V44.4H33.6V37.7C33.6 37 33.4 36.4 33.1 36.1C32.8 35.8 32.3 35.6 31.6 35.6C31 35.6 30.5 35.7 30.1 36C29.7 36.3 29.3 36.7 29.1 37.2V44.4H27.4V34.3H29ZM39.9 44.4H38.2V30.1H39.9V44.4V44.4ZM42.6 31.6C42.6 31.3 42.7 31.1 42.9 30.9C43.1 30.7 43.3 30.6 43.7 30.6C44 30.6 44.3 30.7 44.5 30.9C44.7 31.1 44.8 31.3 44.8 31.6C44.8 31.9 44.7 32.1 44.5 32.3C44.3 32.5 44.1 32.6 43.7 32.6C43.4 32.6 43.1 32.5 42.9 32.3C42.7 32.1 42.6 31.9 42.6 31.6V31.6ZM44.5 44.4H42.8V34.3H44.5V44.4V44.4ZM48.9 34.3L49 35.6C49.8 34.6 50.8 34.1 52 34.1C54.1 34.1 55.2 35.3 55.2 37.7V44.4H53.5V37.7C53.5 37 53.3 36.4 53 36.1C52.7 35.8 52.2 35.6 51.5 35.6C50.9 35.6 50.4 35.7 50 36C49.6 36.3 49.2 36.7 49 37.2V44.4H47.3V34.3H48.9ZM62 44.6C60.6 44.6 59.5 44.1 58.7 43.2C57.9 42.3 57.4 41.1 57.4 39.6V39.3C57.4 38.3 57.6 37.4 58 36.6C58.4 35.8 58.9 35.2 59.6 34.7C60.3 34.3 61 34 61.8 34C63.1 34 64.1 34.4 64.9 35.3C65.6 36.2 66 37.4 66 39V39.7H59.1C59.1 40.7 59.4 41.5 60 42.1C60.6 42.7 61.3 43 62.1 43C62.7 43 63.2 42.9 63.7 42.6C64.1 42.4 64.5 42 64.8 41.6L65.9 42.4C65 44 63.7 44.6 62 44.6V44.6ZM61.8 35.5C61.1 35.5 60.5 35.8 60 36.3C59.5 36.8 59.2 37.5 59.1 38.4H64.2V38.3C64.2 37.4 63.9 36.7 63.5 36.3C63.1 35.8 62.5 35.5 61.8 35.5Z" fill="white"/>
</svg>
